<svg id="Capa_2" data-name="Capa 2" xmlns="http://www.w3.org/2000/svg" width="256.07" height="203.74" viewBox="0 0 256.07 203.74">
  <g>
    <rect x="85.14" y="133.75" width="3.87" height="3.15" fill="#fff"/>
    <rect x="85.14" y="124.29" width="3.87" height="3.15" fill="#fff"/>
    <rect x="81.28" y="140.05" width="3.86" height="3.15" fill="#fff"/>
    <rect x="81.28" y="136.9" width="3.86" height="3.15" fill="#fff"/>
    <rect x="81.28" y="127.44" width="3.86" height="3.15" fill="#fff"/>
    <rect x="81.28" y="124.29" width="3.86" height="3.15" fill="#fff"/>
    <rect x="81.28" y="121.14" width="3.86" height="3.15" fill="#fff"/>
    <rect x="81.28" y="117.98" width="3.86" height="3.15" fill="#fff"/>
    <rect x="77.42" y="143.21" width="3.86" height="3.15" fill="#fff"/>
    <rect x="77.42" y="136.9" width="3.86" height="3.15" fill="#fff"/>
    <rect x="77.42" y="130.6" width="3.86" height="3.15" fill="#fff"/>
    <rect x="77.42" y="124.29" width="3.86" height="3.15" fill="#fff"/>
    <rect x="77.42" y="114.83" width="3.86" height="3.16" fill="#fff"/>
    <rect x="77.42" y="111.67" width="3.86" height="3.15" fill="#fff"/>
    <rect x="73.55" y="149.51" width="3.86" height="3.15" fill="#fff"/>
    <rect x="73.55" y="146.36" width="3.86" height="3.15" fill="#fff"/>
    <rect x="73.55" y="140.05" width="3.86" height="3.15" fill="#fff"/>
    <rect x="73.55" y="130.6" width="3.86" height="3.15" fill="#fff"/>
    <rect x="73.55" y="121.14" width="3.86" height="3.15" fill="#fff"/>
    <rect x="73.55" y="108.52" width="3.86" height="3.15" fill="#fff"/>
    <rect x="73.55" y="105.37" width="3.86" height="3.15" fill="#fff"/>
    <rect x="69.69" y="155.82" width="3.86" height="3.15" fill="#fff"/>
    <rect x="69.69" y="152.66" width="3.86" height="3.15" fill="#fff"/>
    <rect x="69.69" y="140.05" width="3.86" height="3.15" fill="#fff"/>
    <rect x="69.69" y="133.75" width="3.86" height="3.15" fill="#fff"/>
    <rect x="69.69" y="121.14" width="3.86" height="3.15" fill="#fff"/>
    <rect x="69.69" y="102.22" width="3.86" height="3.15" fill="#fff"/>
    <rect x="69.69" y="99.06" width="3.86" height="3.15" fill="#fff"/>
    <rect x="65.82" y="162.12" width="3.86" height="3.15" fill="#fff"/>
    <rect x="65.82" y="158.97" width="3.86" height="3.15" fill="#fff"/>
    <rect x="65.82" y="143.21" width="3.86" height="3.15" fill="#fff"/>
    <rect x="65.82" y="133.75" width="3.86" height="3.15" fill="#fff"/>
    <rect x="65.82" y="117.98" width="3.86" height="3.15" fill="#fff"/>
    <rect x="65.82" y="95.91" width="3.86" height="3.15" fill="#fff"/>
    <rect x="65.82" y="92.76" width="3.86" height="3.15" fill="#fff"/>
    <rect x="61.96" y="165.28" width="3.86" height="3.15" fill="#fff"/>
    <rect x="61.96" y="146.36" width="3.86" height="3.15" fill="#fff"/>
    <rect x="61.96" y="136.9" width="3.86" height="3.15" fill="#fff"/>
    <rect x="61.96" y="117.98" width="3.86" height="3.15" fill="#fff"/>
    <rect x="61.96" y="89.61" width="3.86" height="3.15" fill="#fff"/>
    <rect x="58.1" y="168.43" width="3.86" height="3.15" fill="#fff"/>
    <rect x="58.1" y="165.28" width="3.86" height="3.15" fill="#fff"/>
    <rect x="58.1" y="162.12" width="3.86" height="3.15" fill="#fff"/>
    <rect x="58.1" y="158.97" width="3.86" height="3.15" fill="#fff"/>
    <rect x="58.1" y="155.82" width="3.86" height="3.15" fill="#fff"/>
    <rect x="58.1" y="152.66" width="3.86" height="3.15" fill="#fff"/>
    <rect x="58.1" y="149.51" width="3.86" height="3.15" fill="#fff"/>
    <rect x="58.1" y="146.36" width="3.86" height="3.15" fill="#fff"/>
    <rect x="58.1" y="143.21" width="3.86" height="3.15" fill="#fff"/>
    <rect x="58.1" y="140.05" width="3.86" height="3.15" fill="#fff"/>
    <rect x="58.1" y="136.9" width="3.86" height="3.15" fill="#fff"/>
    <rect x="58.1" y="133.75" width="3.86" height="3.15" fill="#fff"/>
    <rect x="58.1" y="130.6" width="3.86" height="3.15" fill="#fff"/>
    <rect x="58.1" y="127.44" width="3.86" height="3.15" fill="#fff"/>
    <rect x="58.1" y="124.29" width="3.86" height="3.15" fill="#fff"/>
    <rect x="58.1" y="121.14" width="3.86" height="3.15" fill="#fff"/>
    <rect x="58.1" y="117.98" width="3.86" height="3.15" fill="#fff"/>
    <rect x="58.1" y="114.83" width="3.86" height="3.16" fill="#fff"/>
    <rect x="58.1" y="111.67" width="3.86" height="3.15" fill="#fff"/>
    <rect x="58.1" y="108.52" width="3.86" height="3.15" fill="#fff"/>
    <rect x="58.1" y="105.37" width="3.86" height="3.15" fill="#fff"/>
    <rect x="58.1" y="102.22" width="3.86" height="3.15" fill="#fff"/>
    <rect x="58.1" y="99.06" width="3.86" height="3.15" fill="#fff"/>
    <rect x="58.1" y="95.91" width="3.86" height="3.15" fill="#fff"/>
    <rect x="58.1" y="92.76" width="3.86" height="3.15" fill="#fff"/>
    <rect x="58.1" y="89.61" width="3.86" height="3.15" fill="#fff"/>
    <rect x="58.1" y="86.45" width="3.86" height="3.15" fill="#fff"/>
    <rect x="58.1" y="83.3" width="3.86" height="3.15" fill="#fff"/>
    <rect x="54.23" y="165.28" width="3.86" height="3.15" fill="#fff"/>
    <rect x="54.23" y="146.36" width="3.86" height="3.15" fill="#fff"/>
    <rect x="54.23" y="136.9" width="3.86" height="3.15" fill="#fff"/>
    <rect x="54.23" y="117.98" width="3.86" height="3.15" fill="#fff"/>
    <rect x="54.23" y="89.61" width="3.86" height="3.15" fill="#fff"/>
    <rect x="50.37" y="162.12" width="3.86" height="3.15" fill="#fff"/>
    <rect x="50.37" y="158.97" width="3.86" height="3.15" fill="#fff"/>
    <rect x="50.37" y="143.21" width="3.86" height="3.15" fill="#fff"/>
    <rect x="50.37" y="133.75" width="3.86" height="3.15" fill="#fff"/>
    <rect x="50.37" y="117.98" width="3.86" height="3.15" fill="#fff"/>
    <rect x="50.37" y="95.91" width="3.86" height="3.15" fill="#fff"/>
    <rect x="50.37" y="92.76" width="3.86" height="3.15" fill="#fff"/>
    <rect x="46.51" y="155.82" width="3.86" height="3.15" fill="#fff"/>
    <rect x="46.51" y="152.66" width="3.86" height="3.15" fill="#fff"/>
    <rect x="46.51" y="140.05" width="3.86" height="3.15" fill="#fff"/>
    <rect x="46.51" y="133.75" width="3.86" height="3.15" fill="#fff"/>
    <rect x="46.51" y="121.14" width="3.86" height="3.15" fill="#fff"/>
    <rect x="46.51" y="102.22" width="3.86" height="3.15" fill="#fff"/>
    <rect x="46.51" y="99.06" width="3.86" height="3.15" fill="#fff"/>
    <rect x="42.64" y="149.51" width="3.86" height="3.15" fill="#fff"/>
    <rect x="42.64" y="146.36" width="3.86" height="3.15" fill="#fff"/>
    <rect x="42.64" y="140.05" width="3.86" height="3.15" fill="#fff"/>
    <rect x="42.64" y="130.6" width="3.86" height="3.15" fill="#fff"/>
    <rect x="42.64" y="121.14" width="3.86" height="3.15" fill="#fff"/>
    <rect x="42.64" y="108.52" width="3.86" height="3.15" fill="#fff"/>
    <rect x="42.64" y="105.37" width="3.86" height="3.15" fill="#fff"/>
    <rect x="38.78" y="143.21" width="3.86" height="3.15" fill="#fff"/>
    <rect x="38.78" y="136.9" width="3.86" height="3.15" fill="#fff"/>
    <rect x="38.78" y="130.6" width="3.86" height="3.15" fill="#fff"/>
    <rect x="38.78" y="124.29" width="3.86" height="3.15" fill="#fff"/>
    <rect x="38.78" y="114.83" width="3.86" height="3.16" fill="#fff"/>
    <rect x="38.78" y="111.67" width="3.86" height="3.15" fill="#fff"/>
    <rect x="34.91" y="140.05" width="3.86" height="3.15" fill="#fff"/>
    <rect x="34.91" y="136.9" width="3.86" height="3.15" fill="#fff"/>
    <rect x="34.91" y="127.44" width="3.86" height="3.15" fill="#fff"/>
    <rect x="34.91" y="124.29" width="3.86" height="3.15" fill="#fff"/>
    <rect x="34.91" y="121.14" width="3.86" height="3.15" fill="#fff"/>
    <rect x="34.91" y="117.98" width="3.86" height="3.15" fill="#fff"/>
    <rect x="31.05" y="133.75" width="3.86" height="3.15" fill="#fff"/>
    <rect x="31.05" y="124.29" width="3.86" height="3.15" fill="#fff"/>
  </g>
</svg>
