<svg id="Capa_2" data-name="Capa 2" xmlns="http://www.w3.org/2000/svg" width="254.03" height="203.74" viewBox="0 0 254.03 203.74">
  <g>
    <rect x="82.24" y="133.69" width="3.74" height="3.05" fill="#fff"/>
    <rect x="82.24" y="124.56" width="3.74" height="3.05" fill="#fff"/>
    <rect x="78.51" y="139.78" width="3.73" height="3.05" fill="#fff"/>
    <rect x="78.51" y="136.74" width="3.73" height="3.05" fill="#fff"/>
    <rect x="78.51" y="127.6" width="3.73" height="3.05" fill="#fff"/>
    <rect x="78.51" y="124.56" width="3.73" height="3.05" fill="#fff"/>
    <rect x="78.51" y="121.51" width="3.73" height="3.05" fill="#fff"/>
    <rect x="78.51" y="118.47" width="3.73" height="3.05" fill="#fff"/>
    <rect x="74.78" y="142.83" width="3.73" height="3.05" fill="#fff"/>
    <rect x="74.78" y="136.74" width="3.73" height="3.05" fill="#fff"/>
    <rect x="74.78" y="130.65" width="3.73" height="3.05" fill="#fff"/>
    <rect x="74.78" y="124.56" width="3.73" height="3.05" fill="#fff"/>
    <rect x="74.78" y="115.42" width="3.73" height="3.05" fill="#fff"/>
    <rect x="74.78" y="112.37" width="3.73" height="3.05" fill="#fff"/>
    <rect x="71.04" y="148.92" width="3.73" height="3.05" fill="#fff"/>
    <rect x="71.04" y="145.87" width="3.73" height="3.05" fill="#fff"/>
    <rect x="71.04" y="139.78" width="3.73" height="3.05" fill="#fff"/>
    <rect x="71.04" y="130.65" width="3.73" height="3.05" fill="#fff"/>
    <rect x="71.04" y="121.51" width="3.73" height="3.05" fill="#fff"/>
    <rect x="71.04" y="109.33" width="3.73" height="3.05" fill="#fff"/>
    <rect x="71.04" y="106.28" width="3.73" height="3.05" fill="#fff"/>
    <rect x="67.31" y="155.01" width="3.73" height="3.05" fill="#fff"/>
    <rect x="67.31" y="151.97" width="3.73" height="3.05" fill="#fff"/>
    <rect x="67.31" y="139.78" width="3.73" height="3.05" fill="#fff"/>
    <rect x="67.31" y="133.69" width="3.73" height="3.05" fill="#fff"/>
    <rect x="67.31" y="121.51" width="3.73" height="3.05" fill="#fff"/>
    <rect x="67.31" y="103.24" width="3.73" height="3.05" fill="#fff"/>
    <rect x="67.31" y="100.19" width="3.73" height="3.05" fill="#fff"/>
    <rect x="63.58" y="161.1" width="3.73" height="3.05" fill="#fff"/>
    <rect x="63.58" y="158.06" width="3.73" height="3.05" fill="#fff"/>
    <rect x="63.58" y="142.83" width="3.73" height="3.05" fill="#fff"/>
    <rect x="63.58" y="133.69" width="3.73" height="3.05" fill="#fff"/>
    <rect x="63.58" y="118.47" width="3.73" height="3.05" fill="#fff"/>
    <rect x="63.58" y="97.15" width="3.73" height="3.05" fill="#fff"/>
    <rect x="63.58" y="94.1" width="3.73" height="3.05" fill="#fff"/>
    <rect x="59.85" y="164.15" width="3.73" height="3.05" fill="#fff"/>
    <rect x="59.85" y="145.87" width="3.73" height="3.05" fill="#fff"/>
    <rect x="59.85" y="136.74" width="3.73" height="3.05" fill="#fff"/>
    <rect x="59.85" y="118.47" width="3.73" height="3.05" fill="#fff"/>
    <rect x="59.85" y="91.06" width="3.73" height="3.05" fill="#fff"/>
    <rect x="56.12" y="167.19" width="3.73" height="3.05" fill="#fff"/>
    <rect x="56.12" y="164.15" width="3.73" height="3.05" fill="#fff"/>
    <rect x="56.12" y="161.1" width="3.73" height="3.05" fill="#fff"/>
    <rect x="56.12" y="158.06" width="3.73" height="3.05" fill="#fff"/>
    <rect x="56.12" y="155.01" width="3.73" height="3.05" fill="#fff"/>
    <rect x="56.12" y="151.97" width="3.73" height="3.05" fill="#fff"/>
    <rect x="56.12" y="148.92" width="3.73" height="3.05" fill="#fff"/>
    <rect x="56.12" y="145.87" width="3.73" height="3.05" fill="#fff"/>
    <rect x="56.12" y="142.83" width="3.73" height="3.05" fill="#fff"/>
    <rect x="56.12" y="139.78" width="3.73" height="3.05" fill="#fff"/>
    <rect x="56.12" y="136.74" width="3.73" height="3.05" fill="#fff"/>
    <rect x="56.12" y="133.69" width="3.73" height="3.05" fill="#fff"/>
    <rect x="56.12" y="130.65" width="3.73" height="3.05" fill="#fff"/>
    <rect x="56.12" y="127.6" width="3.73" height="3.05" fill="#fff"/>
    <rect x="56.12" y="124.56" width="3.73" height="3.05" fill="#fff"/>
    <rect x="56.12" y="121.51" width="3.73" height="3.05" fill="#fff"/>
    <rect x="56.12" y="118.47" width="3.73" height="3.05" fill="#fff"/>
    <rect x="56.12" y="115.42" width="3.73" height="3.05" fill="#fff"/>
    <rect x="56.12" y="112.37" width="3.73" height="3.05" fill="#fff"/>
    <rect x="56.12" y="109.33" width="3.73" height="3.05" fill="#fff"/>
    <rect x="56.12" y="106.28" width="3.73" height="3.05" fill="#fff"/>
    <rect x="56.12" y="103.24" width="3.73" height="3.05" fill="#fff"/>
    <rect x="56.12" y="100.19" width="3.73" height="3.05" fill="#fff"/>
    <rect x="56.12" y="97.15" width="3.73" height="3.05" fill="#fff"/>
    <rect x="56.12" y="94.1" width="3.73" height="3.05" fill="#fff"/>
    <rect x="56.12" y="91.06" width="3.73" height="3.05" fill="#fff"/>
    <rect x="56.12" y="88.01" width="3.73" height="3.05" fill="#fff"/>
    <rect x="56.12" y="84.97" width="3.73" height="3.05" fill="#fff"/>
    <rect x="52.38" y="164.15" width="3.73" height="3.05" fill="#fff"/>
    <rect x="52.38" y="145.87" width="3.73" height="3.05" fill="#fff"/>
    <rect x="52.38" y="136.74" width="3.73" height="3.05" fill="#fff"/>
    <rect x="52.38" y="118.47" width="3.73" height="3.05" fill="#fff"/>
    <rect x="52.38" y="91.06" width="3.73" height="3.05" fill="#fff"/>
    <rect x="48.65" y="161.1" width="3.73" height="3.05" fill="#fff"/>
    <rect x="48.65" y="158.06" width="3.73" height="3.05" fill="#fff"/>
    <rect x="48.65" y="142.83" width="3.73" height="3.05" fill="#fff"/>
    <rect x="48.65" y="133.69" width="3.73" height="3.05" fill="#fff"/>
    <rect x="48.65" y="118.47" width="3.73" height="3.05" fill="#fff"/>
    <rect x="48.65" y="97.15" width="3.73" height="3.05" fill="#fff"/>
    <rect x="48.65" y="94.1" width="3.73" height="3.05" fill="#fff"/>
    <rect x="44.92" y="155.01" width="3.73" height="3.05" fill="#fff"/>
    <rect x="44.92" y="151.97" width="3.73" height="3.05" fill="#fff"/>
    <rect x="44.92" y="139.78" width="3.73" height="3.05" fill="#fff"/>
    <rect x="44.92" y="133.69" width="3.73" height="3.05" fill="#fff"/>
    <rect x="44.92" y="121.51" width="3.73" height="3.05" fill="#fff"/>
    <rect x="44.92" y="103.24" width="3.73" height="3.05" fill="#fff"/>
    <rect x="44.92" y="100.19" width="3.73" height="3.05" fill="#fff"/>
    <rect x="41.19" y="148.92" width="3.73" height="3.05" fill="#fff"/>
    <rect x="41.19" y="145.87" width="3.73" height="3.05" fill="#fff"/>
    <rect x="41.19" y="139.78" width="3.73" height="3.05" fill="#fff"/>
    <rect x="41.19" y="130.65" width="3.73" height="3.05" fill="#fff"/>
    <rect x="41.19" y="121.51" width="3.73" height="3.05" fill="#fff"/>
    <rect x="41.19" y="109.33" width="3.73" height="3.05" fill="#fff"/>
    <rect x="41.19" y="106.28" width="3.73" height="3.05" fill="#fff"/>
    <rect x="37.46" y="142.83" width="3.73" height="3.05" fill="#fff"/>
    <rect x="37.46" y="136.74" width="3.73" height="3.05" fill="#fff"/>
    <rect x="37.46" y="130.65" width="3.73" height="3.05" fill="#fff"/>
    <rect x="37.46" y="124.56" width="3.73" height="3.05" fill="#fff"/>
    <rect x="37.46" y="115.42" width="3.73" height="3.05" fill="#fff"/>
    <rect x="37.46" y="112.37" width="3.73" height="3.05" fill="#fff"/>
    <rect x="33.72" y="139.78" width="3.73" height="3.05" fill="#fff"/>
    <rect x="33.72" y="136.74" width="3.73" height="3.05" fill="#fff"/>
    <rect x="33.72" y="127.6" width="3.73" height="3.05" fill="#fff"/>
    <rect x="33.72" y="124.56" width="3.73" height="3.05" fill="#fff"/>
    <rect x="33.72" y="121.51" width="3.73" height="3.05" fill="#fff"/>
    <rect x="33.72" y="118.47" width="3.73" height="3.05" fill="#fff"/>
    <rect x="29.99" y="133.69" width="3.73" height="3.05" fill="#fff"/>
    <rect x="29.99" y="124.56" width="3.73" height="3.05" fill="#fff"/>
  </g>
</svg>
